<svg xmlns="http://www.w3.org/2000/svg" viewBox="0 0 912 218" width="912" height="218">
<rect width="912" height="218" fill="#0d1117"/>
<style>
  text { font-family: "Courier New", Courier, monospace; }
  @keyframes slideIn {
    from { opacity: 0; transform: translateY(-8px); }
    to   { opacity: 1; transform: translateY(0); }
  }
  .cell { animation: slideIn 0.15s ease-out forwards; opacity: 0; }
</style>
<text x="48" y="18" font-size="10" fill="#8b949e">Jul</text>
<text x="96" y="18" font-size="10" fill="#8b949e">Aug</text>
<text x="176" y="18" font-size="10" fill="#8b949e">Sep</text>
<text x="240" y="18" font-size="10" fill="#8b949e">Oct</text>
<text x="304" y="18" font-size="10" fill="#8b949e">Nov</text>
<text x="384" y="18" font-size="10" fill="#8b949e">Dec</text>
<text x="448" y="18" font-size="10" fill="#8b949e">Jan</text>
<text x="512" y="18" font-size="10" fill="#8b949e">Feb</text>
<text x="576" y="18" font-size="10" fill="#8b949e">Mar</text>
<text x="656" y="18" font-size="10" fill="#8b949e">Apr</text>
<text x="720" y="18" font-size="10" fill="#8b949e">May</text>
<text x="800" y="18" font-size="10" fill="#8b949e">Jun</text>
<text x="864" y="18" font-size="10" fill="#8b949e">Jul</text>
<text x="0" y="35" font-size="9" fill="#8b949e">Mon</text>
<text x="0" y="67" font-size="9" fill="#8b949e">Wed</text>
<text x="0" y="99" font-size="9" fill="#8b949e">Fri</text>
<rect class="cell" x="48" y="24" width="13" height="13" rx="2.5" fill="#161b22" style="animation-delay:0.000s"/>
<rect class="cell" x="48" y="40" width="13" height="13" rx="2.5" fill="#161b22" style="animation-delay:0.003s"/>
<rect class="cell" x="48" y="56" width="13" height="13" rx="2.5" fill="#161b22" style="animation-delay:0.006s"/>
<rect class="cell" x="48" y="72" width="13" height="13" rx="2.5" fill="#161b22" style="animation-delay:0.009s"/>
<rect class="cell" x="48" y="88" width="13" height="13" rx="2.5" fill="#161b22" style="animation-delay:0.012s"/>
<rect class="cell" x="48" y="104" width="13" height="13" rx="2.5" fill="#161b22" style="animation-delay:0.015s"/>
<rect class="cell" x="48" y="120" width="13" height="13" rx="2.5" fill="#161b22" style="animation-delay:0.018s"/>
<rect class="cell" x="64" y="24" width="13" height="13" rx="2.5" fill="#161b22" style="animation-delay:0.021s"/>
<rect class="cell" x="64" y="40" width="13" height="13" rx="2.5" fill="#161b22" style="animation-delay:0.024s"/>
<rect class="cell" x="64" y="56" width="13" height="13" rx="2.5" fill="#161b22" style="animation-delay:0.027s"/>
<rect class="cell" x="64" y="72" width="13" height="13" rx="2.5" fill="#161b22" style="animation-delay:0.030s"/>
<rect class="cell" x="64" y="88" width="13" height="13" rx="2.5" fill="#161b22" style="animation-delay:0.033s"/>
<rect class="cell" x="64" y="104" width="13" height="13" rx="2.5" fill="#161b22" style="animation-delay:0.036s"/>
<rect class="cell" x="64" y="120" width="13" height="13" rx="2.5" fill="#161b22" style="animation-delay:0.039s"/>
<rect class="cell" x="80" y="24" width="13" height="13" rx="2.5" fill="#161b22" style="animation-delay:0.042s"/>
<rect class="cell" x="80" y="40" width="13" height="13" rx="2.5" fill="#161b22" style="animation-delay:0.045s"/>
<rect class="cell" x="80" y="56" width="13" height="13" rx="2.5" fill="#161b22" style="animation-delay:0.048s"/>
<rect class="cell" x="80" y="72" width="13" height="13" rx="2.5" fill="#161b22" style="animation-delay:0.051s"/>
<rect class="cell" x="80" y="88" width="13" height="13" rx="2.5" fill="#161b22" style="animation-delay:0.054s"/>
<rect class="cell" x="80" y="104" width="13" height="13" rx="2.5" fill="#161b22" style="animation-delay:0.057s"/>
<rect class="cell" x="80" y="120" width="13" height="13" rx="2.5" fill="#161b22" style="animation-delay:0.060s"/>
<rect class="cell" x="96" y="24" width="13" height="13" rx="2.5" fill="#161b22" style="animation-delay:0.063s"/>
<rect class="cell" x="96" y="40" width="13" height="13" rx="2.5" fill="#161b22" style="animation-delay:0.066s"/>
<rect class="cell" x="96" y="56" width="13" height="13" rx="2.5" fill="#161b22" style="animation-delay:0.069s"/>
<rect class="cell" x="96" y="72" width="13" height="13" rx="2.5" fill="#161b22" style="animation-delay:0.072s"/>
<rect class="cell" x="96" y="88" width="13" height="13" rx="2.5" fill="#161b22" style="animation-delay:0.075s"/>
<rect class="cell" x="96" y="104" width="13" height="13" rx="2.5" fill="#161b22" style="animation-delay:0.078s"/>
<rect class="cell" x="96" y="120" width="13" height="13" rx="2.5" fill="#161b22" style="animation-delay:0.081s"/>
<rect class="cell" x="112" y="24" width="13" height="13" rx="2.5" fill="#161b22" style="animation-delay:0.084s"/>
<rect class="cell" x="112" y="40" width="13" height="13" rx="2.5" fill="#161b22" style="animation-delay:0.087s"/>
<rect class="cell" x="112" y="56" width="13" height="13" rx="2.5" fill="#161b22" style="animation-delay:0.090s"/>
<rect class="cell" x="112" y="72" width="13" height="13" rx="2.5" fill="#161b22" style="animation-delay:0.093s"/>
<rect class="cell" x="112" y="88" width="13" height="13" rx="2.5" fill="#161b22" style="animation-delay:0.096s"/>
<rect class="cell" x="112" y="104" width="13" height="13" rx="2.5" fill="#161b22" style="animation-delay:0.099s"/>
<rect class="cell" x="112" y="120" width="13" height="13" rx="2.5" fill="#161b22" style="animation-delay:0.102s"/>
<rect class="cell" x="128" y="24" width="13" height="13" rx="2.5" fill="#161b22" style="animation-delay:0.105s"/>
<rect class="cell" x="128" y="40" width="13" height="13" rx="2.5" fill="#161b22" style="animation-delay:0.108s"/>
<rect class="cell" x="128" y="56" width="13" height="13" rx="2.5" fill="#161b22" style="animation-delay:0.111s"/>
<rect class="cell" x="128" y="72" width="13" height="13" rx="2.5" fill="#161b22" style="animation-delay:0.114s"/>
<rect class="cell" x="128" y="88" width="13" height="13" rx="2.5" fill="#161b22" style="animation-delay:0.117s"/>
<rect class="cell" x="128" y="104" width="13" height="13" rx="2.5" fill="#161b22" style="animation-delay:0.120s"/>
<rect class="cell" x="128" y="120" width="13" height="13" rx="2.5" fill="#161b22" style="animation-delay:0.123s"/>
<rect class="cell" x="144" y="24" width="13" height="13" rx="2.5" fill="#161b22" style="animation-delay:0.126s"/>
<rect class="cell" x="144" y="40" width="13" height="13" rx="2.5" fill="#161b22" style="animation-delay:0.129s"/>
<rect class="cell" x="144" y="56" width="13" height="13" rx="2.5" fill="#161b22" style="animation-delay:0.132s"/>
<rect class="cell" x="144" y="72" width="13" height="13" rx="2.5" fill="#161b22" style="animation-delay:0.135s"/>
<rect class="cell" x="144" y="88" width="13" height="13" rx="2.5" fill="#161b22" style="animation-delay:0.138s"/>
<rect class="cell" x="144" y="104" width="13" height="13" rx="2.5" fill="#161b22" style="animation-delay:0.141s"/>
<rect class="cell" x="144" y="120" width="13" height="13" rx="2.5" fill="#161b22" style="animation-delay:0.144s"/>
<rect class="cell" x="160" y="24" width="13" height="13" rx="2.5" fill="#161b22" style="animation-delay:0.147s"/>
<rect class="cell" x="160" y="40" width="13" height="13" rx="2.5" fill="#161b22" style="animation-delay:0.150s"/>
<rect class="cell" x="160" y="56" width="13" height="13" rx="2.5" fill="#161b22" style="animation-delay:0.153s"/>
<rect class="cell" x="160" y="72" width="13" height="13" rx="2.5" fill="#161b22" style="animation-delay:0.156s"/>
<rect class="cell" x="160" y="88" width="13" height="13" rx="2.5" fill="#161b22" style="animation-delay:0.159s"/>
<rect class="cell" x="160" y="104" width="13" height="13" rx="2.5" fill="#161b22" style="animation-delay:0.162s"/>
<rect class="cell" x="160" y="120" width="13" height="13" rx="2.5" fill="#161b22" style="animation-delay:0.165s"/>
<rect class="cell" x="176" y="24" width="13" height="13" rx="2.5" fill="#161b22" style="animation-delay:0.168s"/>
<rect class="cell" x="176" y="40" width="13" height="13" rx="2.5" fill="#161b22" style="animation-delay:0.171s"/>
<rect class="cell" x="176" y="56" width="13" height="13" rx="2.5" fill="#161b22" style="animation-delay:0.174s"/>
<rect class="cell" x="176" y="72" width="13" height="13" rx="2.5" fill="#161b22" style="animation-delay:0.177s"/>
<rect class="cell" x="176" y="88" width="13" height="13" rx="2.5" fill="#161b22" style="animation-delay:0.180s"/>
<rect class="cell" x="176" y="104" width="13" height="13" rx="2.5" fill="#161b22" style="animation-delay:0.183s"/>
<rect class="cell" x="176" y="120" width="13" height="13" rx="2.5" fill="#161b22" style="animation-delay:0.186s"/>
<rect class="cell" x="192" y="24" width="13" height="13" rx="2.5" fill="#161b22" style="animation-delay:0.189s"/>
<rect class="cell" x="192" y="40" width="13" height="13" rx="2.5" fill="#161b22" style="animation-delay:0.192s"/>
<rect class="cell" x="192" y="56" width="13" height="13" rx="2.5" fill="#161b22" style="animation-delay:0.195s"/>
<rect class="cell" x="192" y="72" width="13" height="13" rx="2.5" fill="#161b22" style="animation-delay:0.198s"/>
<rect class="cell" x="192" y="88" width="13" height="13" rx="2.5" fill="#161b22" style="animation-delay:0.201s"/>
<rect class="cell" x="192" y="104" width="13" height="13" rx="2.5" fill="#161b22" style="animation-delay:0.204s"/>
<rect class="cell" x="192" y="120" width="13" height="13" rx="2.5" fill="#161b22" style="animation-delay:0.207s"/>
<rect class="cell" x="208" y="24" width="13" height="13" rx="2.5" fill="#161b22" style="animation-delay:0.210s"/>
<rect class="cell" x="208" y="40" width="13" height="13" rx="2.5" fill="#161b22" style="animation-delay:0.213s"/>
<rect class="cell" x="208" y="56" width="13" height="13" rx="2.5" fill="#161b22" style="animation-delay:0.216s"/>
<rect class="cell" x="208" y="72" width="13" height="13" rx="2.5" fill="#161b22" style="animation-delay:0.219s"/>
<rect class="cell" x="208" y="88" width="13" height="13" rx="2.5" fill="#161b22" style="animation-delay:0.222s"/>
<rect class="cell" x="208" y="104" width="13" height="13" rx="2.5" fill="#161b22" style="animation-delay:0.225s"/>
<rect class="cell" x="208" y="120" width="13" height="13" rx="2.5" fill="#161b22" style="animation-delay:0.228s"/>
<rect class="cell" x="224" y="24" width="13" height="13" rx="2.5" fill="#161b22" style="animation-delay:0.231s"/>
<rect class="cell" x="224" y="40" width="13" height="13" rx="2.5" fill="#161b22" style="animation-delay:0.234s"/>
<rect class="cell" x="224" y="56" width="13" height="13" rx="2.5" fill="#161b22" style="animation-delay:0.237s"/>
<rect class="cell" x="224" y="72" width="13" height="13" rx="2.5" fill="#161b22" style="animation-delay:0.240s"/>
<rect class="cell" x="224" y="88" width="13" height="13" rx="2.5" fill="#161b22" style="animation-delay:0.243s"/>
<rect class="cell" x="224" y="104" width="13" height="13" rx="2.5" fill="#161b22" style="animation-delay:0.246s"/>
<rect class="cell" x="224" y="120" width="13" height="13" rx="2.5" fill="#161b22" style="animation-delay:0.249s"/>
<rect class="cell" x="240" y="24" width="13" height="13" rx="2.5" fill="#161b22" style="animation-delay:0.252s"/>
<rect class="cell" x="240" y="40" width="13" height="13" rx="2.5" fill="#161b22" style="animation-delay:0.255s"/>
<rect class="cell" x="240" y="56" width="13" height="13" rx="2.5" fill="#161b22" style="animation-delay:0.258s"/>
<rect class="cell" x="240" y="72" width="13" height="13" rx="2.5" fill="#161b22" style="animation-delay:0.261s"/>
<rect class="cell" x="240" y="88" width="13" height="13" rx="2.5" fill="#161b22" style="animation-delay:0.264s"/>
<rect class="cell" x="240" y="104" width="13" height="13" rx="2.5" fill="#161b22" style="animation-delay:0.267s"/>
<rect class="cell" x="240" y="120" width="13" height="13" rx="2.5" fill="#161b22" style="animation-delay:0.270s"/>
<rect class="cell" x="256" y="24" width="13" height="13" rx="2.5" fill="#161b22" style="animation-delay:0.273s"/>
<rect class="cell" x="256" y="40" width="13" height="13" rx="2.5" fill="#161b22" style="animation-delay:0.276s"/>
<rect class="cell" x="256" y="56" width="13" height="13" rx="2.5" fill="#161b22" style="animation-delay:0.279s"/>
<rect class="cell" x="256" y="72" width="13" height="13" rx="2.5" fill="#161b22" style="animation-delay:0.282s"/>
<rect class="cell" x="256" y="88" width="13" height="13" rx="2.5" fill="#161b22" style="animation-delay:0.285s"/>
<rect class="cell" x="256" y="104" width="13" height="13" rx="2.5" fill="#161b22" style="animation-delay:0.288s"/>
<rect class="cell" x="256" y="120" width="13" height="13" rx="2.5" fill="#161b22" style="animation-delay:0.291s"/>
<rect class="cell" x="272" y="24" width="13" height="13" rx="2.5" fill="#161b22" style="animation-delay:0.294s"/>
<rect class="cell" x="272" y="40" width="13" height="13" rx="2.5" fill="#161b22" style="animation-delay:0.297s"/>
<rect class="cell" x="272" y="56" width="13" height="13" rx="2.5" fill="#161b22" style="animation-delay:0.300s"/>
<rect class="cell" x="272" y="72" width="13" height="13" rx="2.5" fill="#161b22" style="animation-delay:0.303s"/>
<rect class="cell" x="272" y="88" width="13" height="13" rx="2.5" fill="#161b22" style="animation-delay:0.306s"/>
<rect class="cell" x="272" y="104" width="13" height="13" rx="2.5" fill="#161b22" style="animation-delay:0.309s"/>
<rect class="cell" x="272" y="120" width="13" height="13" rx="2.5" fill="#161b22" style="animation-delay:0.312s"/>
<rect class="cell" x="288" y="24" width="13" height="13" rx="2.5" fill="#161b22" style="animation-delay:0.315s"/>
<rect class="cell" x="288" y="40" width="13" height="13" rx="2.5" fill="#161b22" style="animation-delay:0.318s"/>
<rect class="cell" x="288" y="56" width="13" height="13" rx="2.5" fill="#161b22" style="animation-delay:0.321s"/>
<rect class="cell" x="288" y="72" width="13" height="13" rx="2.5" fill="#161b22" style="animation-delay:0.324s"/>
<rect class="cell" x="288" y="88" width="13" height="13" rx="2.5" fill="#161b22" style="animation-delay:0.327s"/>
<rect class="cell" x="288" y="104" width="13" height="13" rx="2.5" fill="#161b22" style="animation-delay:0.330s"/>
<rect class="cell" x="288" y="120" width="13" height="13" rx="2.5" fill="#161b22" style="animation-delay:0.333s"/>
<rect class="cell" x="304" y="24" width="13" height="13" rx="2.5" fill="#161b22" style="animation-delay:0.336s"/>
<rect class="cell" x="304" y="40" width="13" height="13" rx="2.5" fill="#161b22" style="animation-delay:0.339s"/>
<rect class="cell" x="304" y="56" width="13" height="13" rx="2.5" fill="#161b22" style="animation-delay:0.342s"/>
<rect class="cell" x="304" y="72" width="13" height="13" rx="2.5" fill="#161b22" style="animation-delay:0.345s"/>
<rect class="cell" x="304" y="88" width="13" height="13" rx="2.5" fill="#161b22" style="animation-delay:0.348s"/>
<rect class="cell" x="304" y="104" width="13" height="13" rx="2.5" fill="#161b22" style="animation-delay:0.351s"/>
<rect class="cell" x="304" y="120" width="13" height="13" rx="2.5" fill="#161b22" style="animation-delay:0.354s"/>
<rect class="cell" x="320" y="24" width="13" height="13" rx="2.5" fill="#161b22" style="animation-delay:0.357s"/>
<rect class="cell" x="320" y="40" width="13" height="13" rx="2.5" fill="#161b22" style="animation-delay:0.360s"/>
<rect class="cell" x="320" y="56" width="13" height="13" rx="2.5" fill="#161b22" style="animation-delay:0.363s"/>
<rect class="cell" x="320" y="72" width="13" height="13" rx="2.5" fill="#161b22" style="animation-delay:0.366s"/>
<rect class="cell" x="320" y="88" width="13" height="13" rx="2.5" fill="#161b22" style="animation-delay:0.369s"/>
<rect class="cell" x="320" y="104" width="13" height="13" rx="2.5" fill="#161b22" style="animation-delay:0.372s"/>
<rect class="cell" x="320" y="120" width="13" height="13" rx="2.5" fill="#161b22" style="animation-delay:0.375s"/>
<rect class="cell" x="336" y="24" width="13" height="13" rx="2.5" fill="#161b22" style="animation-delay:0.378s"/>
<rect class="cell" x="336" y="40" width="13" height="13" rx="2.5" fill="#161b22" style="animation-delay:0.381s"/>
<rect class="cell" x="336" y="56" width="13" height="13" rx="2.5" fill="#161b22" style="animation-delay:0.384s"/>
<rect class="cell" x="336" y="72" width="13" height="13" rx="2.5" fill="#161b22" style="animation-delay:0.387s"/>
<rect class="cell" x="336" y="88" width="13" height="13" rx="2.5" fill="#161b22" style="animation-delay:0.390s"/>
<rect class="cell" x="336" y="104" width="13" height="13" rx="2.5" fill="#161b22" style="animation-delay:0.393s"/>
<rect class="cell" x="336" y="120" width="13" height="13" rx="2.5" fill="#161b22" style="animation-delay:0.396s"/>
<rect class="cell" x="352" y="24" width="13" height="13" rx="2.5" fill="#161b22" style="animation-delay:0.399s"/>
<rect class="cell" x="352" y="40" width="13" height="13" rx="2.5" fill="#161b22" style="animation-delay:0.402s"/>
<rect class="cell" x="352" y="56" width="13" height="13" rx="2.5" fill="#161b22" style="animation-delay:0.405s"/>
<rect class="cell" x="352" y="72" width="13" height="13" rx="2.5" fill="#161b22" style="animation-delay:0.408s"/>
<rect class="cell" x="352" y="88" width="13" height="13" rx="2.5" fill="#161b22" style="animation-delay:0.411s"/>
<rect class="cell" x="352" y="104" width="13" height="13" rx="2.5" fill="#161b22" style="animation-delay:0.414s"/>
<rect class="cell" x="352" y="120" width="13" height="13" rx="2.5" fill="#161b22" style="animation-delay:0.417s"/>
<rect class="cell" x="368" y="24" width="13" height="13" rx="2.5" fill="#161b22" style="animation-delay:0.420s"/>
<rect class="cell" x="368" y="40" width="13" height="13" rx="2.5" fill="#161b22" style="animation-delay:0.423s"/>
<rect class="cell" x="368" y="56" width="13" height="13" rx="2.5" fill="#161b22" style="animation-delay:0.426s"/>
<rect class="cell" x="368" y="72" width="13" height="13" rx="2.5" fill="#161b22" style="animation-delay:0.429s"/>
<rect class="cell" x="368" y="88" width="13" height="13" rx="2.5" fill="#161b22" style="animation-delay:0.432s"/>
<rect class="cell" x="368" y="104" width="13" height="13" rx="2.5" fill="#161b22" style="animation-delay:0.435s"/>
<rect class="cell" x="368" y="120" width="13" height="13" rx="2.5" fill="#161b22" style="animation-delay:0.438s"/>
<rect class="cell" x="384" y="24" width="13" height="13" rx="2.5" fill="#161b22" style="animation-delay:0.441s"/>
<rect class="cell" x="384" y="40" width="13" height="13" rx="2.5" fill="#161b22" style="animation-delay:0.444s"/>
<rect class="cell" x="384" y="56" width="13" height="13" rx="2.5" fill="#161b22" style="animation-delay:0.447s"/>
<rect class="cell" x="384" y="72" width="13" height="13" rx="2.5" fill="#161b22" style="animation-delay:0.450s"/>
<rect class="cell" x="384" y="88" width="13" height="13" rx="2.5" fill="#161b22" style="animation-delay:0.453s"/>
<rect class="cell" x="384" y="104" width="13" height="13" rx="2.5" fill="#161b22" style="animation-delay:0.456s"/>
<rect class="cell" x="384" y="120" width="13" height="13" rx="2.5" fill="#161b22" style="animation-delay:0.459s"/>
<rect class="cell" x="400" y="24" width="13" height="13" rx="2.5" fill="#161b22" style="animation-delay:0.462s"/>
<rect class="cell" x="400" y="40" width="13" height="13" rx="2.5" fill="#161b22" style="animation-delay:0.465s"/>
<rect class="cell" x="400" y="56" width="13" height="13" rx="2.5" fill="#161b22" style="animation-delay:0.468s"/>
<rect class="cell" x="400" y="72" width="13" height="13" rx="2.5" fill="#161b22" style="animation-delay:0.471s"/>
<rect class="cell" x="400" y="88" width="13" height="13" rx="2.5" fill="#161b22" style="animation-delay:0.474s"/>
<rect class="cell" x="400" y="104" width="13" height="13" rx="2.5" fill="#161b22" style="animation-delay:0.477s"/>
<rect class="cell" x="400" y="120" width="13" height="13" rx="2.5" fill="#161b22" style="animation-delay:0.480s"/>
<rect class="cell" x="416" y="24" width="13" height="13" rx="2.5" fill="#161b22" style="animation-delay:0.483s"/>
<rect class="cell" x="416" y="40" width="13" height="13" rx="2.5" fill="#161b22" style="animation-delay:0.486s"/>
<rect class="cell" x="416" y="56" width="13" height="13" rx="2.5" fill="#161b22" style="animation-delay:0.489s"/>
<rect class="cell" x="416" y="72" width="13" height="13" rx="2.5" fill="#161b22" style="animation-delay:0.492s"/>
<rect class="cell" x="416" y="88" width="13" height="13" rx="2.5" fill="#161b22" style="animation-delay:0.495s"/>
<rect class="cell" x="416" y="104" width="13" height="13" rx="2.5" fill="#161b22" style="animation-delay:0.498s"/>
<rect class="cell" x="416" y="120" width="13" height="13" rx="2.5" fill="#161b22" style="animation-delay:0.501s"/>
<rect class="cell" x="432" y="24" width="13" height="13" rx="2.5" fill="#161b22" style="animation-delay:0.504s"/>
<rect class="cell" x="432" y="40" width="13" height="13" rx="2.5" fill="#161b22" style="animation-delay:0.507s"/>
<rect class="cell" x="432" y="56" width="13" height="13" rx="2.5" fill="#161b22" style="animation-delay:0.510s"/>
<rect class="cell" x="432" y="72" width="13" height="13" rx="2.5" fill="#161b22" style="animation-delay:0.513s"/>
<rect class="cell" x="432" y="88" width="13" height="13" rx="2.5" fill="#161b22" style="animation-delay:0.516s"/>
<rect class="cell" x="432" y="104" width="13" height="13" rx="2.5" fill="#161b22" style="animation-delay:0.519s"/>
<rect class="cell" x="432" y="120" width="13" height="13" rx="2.5" fill="#161b22" style="animation-delay:0.522s"/>
<rect class="cell" x="448" y="24" width="13" height="13" rx="2.5" fill="#161b22" style="animation-delay:0.525s"/>
<rect class="cell" x="448" y="40" width="13" height="13" rx="2.5" fill="#161b22" style="animation-delay:0.528s"/>
<rect class="cell" x="448" y="56" width="13" height="13" rx="2.5" fill="#161b22" style="animation-delay:0.531s"/>
<rect class="cell" x="448" y="72" width="13" height="13" rx="2.5" fill="#161b22" style="animation-delay:0.534s"/>
<rect class="cell" x="448" y="88" width="13" height="13" rx="2.5" fill="#161b22" style="animation-delay:0.537s"/>
<rect class="cell" x="448" y="104" width="13" height="13" rx="2.5" fill="#161b22" style="animation-delay:0.540s"/>
<rect class="cell" x="448" y="120" width="13" height="13" rx="2.5" fill="#161b22" style="animation-delay:0.543s"/>
<rect class="cell" x="464" y="24" width="13" height="13" rx="2.5" fill="#161b22" style="animation-delay:0.546s"/>
<rect class="cell" x="464" y="40" width="13" height="13" rx="2.5" fill="#161b22" style="animation-delay:0.549s"/>
<rect class="cell" x="464" y="56" width="13" height="13" rx="2.5" fill="#161b22" style="animation-delay:0.552s"/>
<rect class="cell" x="464" y="72" width="13" height="13" rx="2.5" fill="#161b22" style="animation-delay:0.555s"/>
<rect class="cell" x="464" y="88" width="13" height="13" rx="2.5" fill="#161b22" style="animation-delay:0.558s"/>
<rect class="cell" x="464" y="104" width="13" height="13" rx="2.5" fill="#161b22" style="animation-delay:0.561s"/>
<rect class="cell" x="464" y="120" width="13" height="13" rx="2.5" fill="#161b22" style="animation-delay:0.564s"/>
<rect class="cell" x="480" y="24" width="13" height="13" rx="2.5" fill="#161b22" style="animation-delay:0.567s"/>
<rect class="cell" x="480" y="40" width="13" height="13" rx="2.5" fill="#161b22" style="animation-delay:0.570s"/>
<rect class="cell" x="480" y="56" width="13" height="13" rx="2.5" fill="#161b22" style="animation-delay:0.573s"/>
<rect class="cell" x="480" y="72" width="13" height="13" rx="2.5" fill="#161b22" style="animation-delay:0.576s"/>
<rect class="cell" x="480" y="88" width="13" height="13" rx="2.5" fill="#161b22" style="animation-delay:0.579s"/>
<rect class="cell" x="480" y="104" width="13" height="13" rx="2.5" fill="#161b22" style="animation-delay:0.582s"/>
<rect class="cell" x="480" y="120" width="13" height="13" rx="2.5" fill="#161b22" style="animation-delay:0.585s"/>
<rect class="cell" x="496" y="24" width="13" height="13" rx="2.5" fill="#161b22" style="animation-delay:0.588s"/>
<rect class="cell" x="496" y="40" width="13" height="13" rx="2.5" fill="#161b22" style="animation-delay:0.591s"/>
<rect class="cell" x="496" y="56" width="13" height="13" rx="2.5" fill="#161b22" style="animation-delay:0.594s"/>
<rect class="cell" x="496" y="72" width="13" height="13" rx="2.5" fill="#161b22" style="animation-delay:0.597s"/>
<rect class="cell" x="496" y="88" width="13" height="13" rx="2.5" fill="#161b22" style="animation-delay:0.600s"/>
<rect class="cell" x="496" y="104" width="13" height="13" rx="2.5" fill="#161b22" style="animation-delay:0.603s"/>
<rect class="cell" x="496" y="120" width="13" height="13" rx="2.5" fill="#161b22" style="animation-delay:0.606s"/>
<rect class="cell" x="512" y="24" width="13" height="13" rx="2.5" fill="#161b22" style="animation-delay:0.609s"/>
<rect class="cell" x="512" y="40" width="13" height="13" rx="2.5" fill="#161b22" style="animation-delay:0.612s"/>
<rect class="cell" x="512" y="56" width="13" height="13" rx="2.5" fill="#161b22" style="animation-delay:0.615s"/>
<rect class="cell" x="512" y="72" width="13" height="13" rx="2.5" fill="#161b22" style="animation-delay:0.618s"/>
<rect class="cell" x="512" y="88" width="13" height="13" rx="2.5" fill="#161b22" style="animation-delay:0.621s"/>
<rect class="cell" x="512" y="104" width="13" height="13" rx="2.5" fill="#161b22" style="animation-delay:0.624s"/>
<rect class="cell" x="512" y="120" width="13" height="13" rx="2.5" fill="#161b22" style="animation-delay:0.627s"/>
<rect class="cell" x="528" y="24" width="13" height="13" rx="2.5" fill="#161b22" style="animation-delay:0.630s"/>
<rect class="cell" x="528" y="40" width="13" height="13" rx="2.5" fill="#161b22" style="animation-delay:0.633s"/>
<rect class="cell" x="528" y="56" width="13" height="13" rx="2.5" fill="#161b22" style="animation-delay:0.636s"/>
<rect class="cell" x="528" y="72" width="13" height="13" rx="2.5" fill="#161b22" style="animation-delay:0.639s"/>
<rect class="cell" x="528" y="88" width="13" height="13" rx="2.5" fill="#161b22" style="animation-delay:0.642s"/>
<rect class="cell" x="528" y="104" width="13" height="13" rx="2.5" fill="#161b22" style="animation-delay:0.645s"/>
<rect class="cell" x="528" y="120" width="13" height="13" rx="2.5" fill="#161b22" style="animation-delay:0.648s"/>
<rect class="cell" x="544" y="24" width="13" height="13" rx="2.5" fill="#161b22" style="animation-delay:0.651s"/>
<rect class="cell" x="544" y="40" width="13" height="13" rx="2.5" fill="#161b22" style="animation-delay:0.654s"/>
<rect class="cell" x="544" y="56" width="13" height="13" rx="2.5" fill="#161b22" style="animation-delay:0.657s"/>
<rect class="cell" x="544" y="72" width="13" height="13" rx="2.5" fill="#161b22" style="animation-delay:0.660s"/>
<rect class="cell" x="544" y="88" width="13" height="13" rx="2.5" fill="#161b22" style="animation-delay:0.663s"/>
<rect class="cell" x="544" y="104" width="13" height="13" rx="2.5" fill="#161b22" style="animation-delay:0.666s"/>
<rect class="cell" x="544" y="120" width="13" height="13" rx="2.5" fill="#161b22" style="animation-delay:0.669s"/>
<rect class="cell" x="560" y="24" width="13" height="13" rx="2.5" fill="#161b22" style="animation-delay:0.672s"/>
<rect class="cell" x="560" y="40" width="13" height="13" rx="2.5" fill="#161b22" style="animation-delay:0.675s"/>
<rect class="cell" x="560" y="56" width="13" height="13" rx="2.5" fill="#161b22" style="animation-delay:0.678s"/>
<rect class="cell" x="560" y="72" width="13" height="13" rx="2.5" fill="#161b22" style="animation-delay:0.681s"/>
<rect class="cell" x="560" y="88" width="13" height="13" rx="2.5" fill="#161b22" style="animation-delay:0.684s"/>
<rect class="cell" x="560" y="104" width="13" height="13" rx="2.5" fill="#161b22" style="animation-delay:0.687s"/>
<rect class="cell" x="560" y="120" width="13" height="13" rx="2.5" fill="#161b22" style="animation-delay:0.690s"/>
<rect class="cell" x="576" y="24" width="13" height="13" rx="2.5" fill="#161b22" style="animation-delay:0.693s"/>
<rect class="cell" x="576" y="40" width="13" height="13" rx="2.5" fill="#161b22" style="animation-delay:0.696s"/>
<rect class="cell" x="576" y="56" width="13" height="13" rx="2.5" fill="#161b22" style="animation-delay:0.699s"/>
<rect class="cell" x="576" y="72" width="13" height="13" rx="2.5" fill="#161b22" style="animation-delay:0.702s"/>
<rect class="cell" x="576" y="88" width="13" height="13" rx="2.5" fill="#161b22" style="animation-delay:0.705s"/>
<rect class="cell" x="576" y="104" width="13" height="13" rx="2.5" fill="#161b22" style="animation-delay:0.708s"/>
<rect class="cell" x="576" y="120" width="13" height="13" rx="2.5" fill="#161b22" style="animation-delay:0.711s"/>
<rect class="cell" x="592" y="24" width="13" height="13" rx="2.5" fill="#161b22" style="animation-delay:0.714s"/>
<rect class="cell" x="592" y="40" width="13" height="13" rx="2.5" fill="#161b22" style="animation-delay:0.717s"/>
<rect class="cell" x="592" y="56" width="13" height="13" rx="2.5" fill="#161b22" style="animation-delay:0.720s"/>
<rect class="cell" x="592" y="72" width="13" height="13" rx="2.5" fill="#161b22" style="animation-delay:0.723s"/>
<rect class="cell" x="592" y="88" width="13" height="13" rx="2.5" fill="#161b22" style="animation-delay:0.726s"/>
<rect class="cell" x="592" y="104" width="13" height="13" rx="2.5" fill="#161b22" style="animation-delay:0.729s"/>
<rect class="cell" x="592" y="120" width="13" height="13" rx="2.5" fill="#161b22" style="animation-delay:0.732s"/>
<rect class="cell" x="608" y="24" width="13" height="13" rx="2.5" fill="#161b22" style="animation-delay:0.735s"/>
<rect class="cell" x="608" y="40" width="13" height="13" rx="2.5" fill="#161b22" style="animation-delay:0.738s"/>
<rect class="cell" x="608" y="56" width="13" height="13" rx="2.5" fill="#161b22" style="animation-delay:0.741s"/>
<rect class="cell" x="608" y="72" width="13" height="13" rx="2.5" fill="#161b22" style="animation-delay:0.744s"/>
<rect class="cell" x="608" y="88" width="13" height="13" rx="2.5" fill="#161b22" style="animation-delay:0.747s"/>
<rect class="cell" x="608" y="104" width="13" height="13" rx="2.5" fill="#161b22" style="animation-delay:0.750s"/>
<rect class="cell" x="608" y="120" width="13" height="13" rx="2.5" fill="#161b22" style="animation-delay:0.753s"/>
<rect class="cell" x="624" y="24" width="13" height="13" rx="2.5" fill="#161b22" style="animation-delay:0.756s"/>
<rect class="cell" x="624" y="40" width="13" height="13" rx="2.5" fill="#161b22" style="animation-delay:0.759s"/>
<rect class="cell" x="624" y="56" width="13" height="13" rx="2.5" fill="#161b22" style="animation-delay:0.762s"/>
<rect class="cell" x="624" y="72" width="13" height="13" rx="2.5" fill="#161b22" style="animation-delay:0.765s"/>
<rect class="cell" x="624" y="88" width="13" height="13" rx="2.5" fill="#161b22" style="animation-delay:0.768s"/>
<rect class="cell" x="624" y="104" width="13" height="13" rx="2.5" fill="#161b22" style="animation-delay:0.771s"/>
<rect class="cell" x="624" y="120" width="13" height="13" rx="2.5" fill="#161b22" style="animation-delay:0.774s"/>
<rect class="cell" x="640" y="24" width="13" height="13" rx="2.5" fill="#161b22" style="animation-delay:0.777s"/>
<rect class="cell" x="640" y="40" width="13" height="13" rx="2.5" fill="#161b22" style="animation-delay:0.780s"/>
<rect class="cell" x="640" y="56" width="13" height="13" rx="2.5" fill="#161b22" style="animation-delay:0.783s"/>
<rect class="cell" x="640" y="72" width="13" height="13" rx="2.5" fill="#161b22" style="animation-delay:0.786s"/>
<rect class="cell" x="640" y="88" width="13" height="13" rx="2.5" fill="#161b22" style="animation-delay:0.789s"/>
<rect class="cell" x="640" y="104" width="13" height="13" rx="2.5" fill="#161b22" style="animation-delay:0.792s"/>
<rect class="cell" x="640" y="120" width="13" height="13" rx="2.5" fill="#161b22" style="animation-delay:0.795s"/>
<rect class="cell" x="656" y="24" width="13" height="13" rx="2.5" fill="#161b22" style="animation-delay:0.798s"/>
<rect class="cell" x="656" y="40" width="13" height="13" rx="2.5" fill="#161b22" style="animation-delay:0.801s"/>
<rect class="cell" x="656" y="56" width="13" height="13" rx="2.5" fill="#161b22" style="animation-delay:0.804s"/>
<rect class="cell" x="656" y="72" width="13" height="13" rx="2.5" fill="#161b22" style="animation-delay:0.807s"/>
<rect class="cell" x="656" y="88" width="13" height="13" rx="2.5" fill="#161b22" style="animation-delay:0.810s"/>
<rect class="cell" x="656" y="104" width="13" height="13" rx="2.5" fill="#161b22" style="animation-delay:0.813s"/>
<rect class="cell" x="656" y="120" width="13" height="13" rx="2.5" fill="#161b22" style="animation-delay:0.816s"/>
<rect class="cell" x="672" y="24" width="13" height="13" rx="2.5" fill="#161b22" style="animation-delay:0.819s"/>
<rect class="cell" x="672" y="40" width="13" height="13" rx="2.5" fill="#161b22" style="animation-delay:0.822s"/>
<rect class="cell" x="672" y="56" width="13" height="13" rx="2.5" fill="#161b22" style="animation-delay:0.825s"/>
<rect class="cell" x="672" y="72" width="13" height="13" rx="2.5" fill="#161b22" style="animation-delay:0.828s"/>
<rect class="cell" x="672" y="88" width="13" height="13" rx="2.5" fill="#161b22" style="animation-delay:0.831s"/>
<rect class="cell" x="672" y="104" width="13" height="13" rx="2.5" fill="#161b22" style="animation-delay:0.834s"/>
<rect class="cell" x="672" y="120" width="13" height="13" rx="2.5" fill="#161b22" style="animation-delay:0.837s"/>
<rect class="cell" x="688" y="24" width="13" height="13" rx="2.5" fill="#161b22" style="animation-delay:0.840s"/>
<rect class="cell" x="688" y="40" width="13" height="13" rx="2.5" fill="#161b22" style="animation-delay:0.843s"/>
<rect class="cell" x="688" y="56" width="13" height="13" rx="2.5" fill="#161b22" style="animation-delay:0.846s"/>
<rect class="cell" x="688" y="72" width="13" height="13" rx="2.5" fill="#161b22" style="animation-delay:0.849s"/>
<rect class="cell" x="688" y="88" width="13" height="13" rx="2.5" fill="#161b22" style="animation-delay:0.852s"/>
<rect class="cell" x="688" y="104" width="13" height="13" rx="2.5" fill="#161b22" style="animation-delay:0.855s"/>
<rect class="cell" x="688" y="120" width="13" height="13" rx="2.5" fill="#161b22" style="animation-delay:0.858s"/>
<rect class="cell" x="704" y="24" width="13" height="13" rx="2.5" fill="#161b22" style="animation-delay:0.861s"/>
<rect class="cell" x="704" y="40" width="13" height="13" rx="2.5" fill="#161b22" style="animation-delay:0.864s"/>
<rect class="cell" x="704" y="56" width="13" height="13" rx="2.5" fill="#161b22" style="animation-delay:0.867s"/>
<rect class="cell" x="704" y="72" width="13" height="13" rx="2.5" fill="#161b22" style="animation-delay:0.870s"/>
<rect class="cell" x="704" y="88" width="13" height="13" rx="2.5" fill="#161b22" style="animation-delay:0.873s"/>
<rect class="cell" x="704" y="104" width="13" height="13" rx="2.5" fill="#161b22" style="animation-delay:0.876s"/>
<rect class="cell" x="704" y="120" width="13" height="13" rx="2.5" fill="#161b22" style="animation-delay:0.879s"/>
<rect class="cell" x="720" y="24" width="13" height="13" rx="2.5" fill="#161b22" style="animation-delay:0.882s"/>
<rect class="cell" x="720" y="40" width="13" height="13" rx="2.5" fill="#161b22" style="animation-delay:0.885s"/>
<rect class="cell" x="720" y="56" width="13" height="13" rx="2.5" fill="#161b22" style="animation-delay:0.888s"/>
<rect class="cell" x="720" y="72" width="13" height="13" rx="2.5" fill="#161b22" style="animation-delay:0.891s"/>
<rect class="cell" x="720" y="88" width="13" height="13" rx="2.5" fill="#161b22" style="animation-delay:0.894s"/>
<rect class="cell" x="720" y="104" width="13" height="13" rx="2.5" fill="#161b22" style="animation-delay:0.897s"/>
<rect class="cell" x="720" y="120" width="13" height="13" rx="2.5" fill="#161b22" style="animation-delay:0.900s"/>
<rect class="cell" x="736" y="24" width="13" height="13" rx="2.5" fill="#161b22" style="animation-delay:0.903s"/>
<rect class="cell" x="736" y="40" width="13" height="13" rx="2.5" fill="#161b22" style="animation-delay:0.906s"/>
<rect class="cell" x="736" y="56" width="13" height="13" rx="2.5" fill="#161b22" style="animation-delay:0.909s"/>
<rect class="cell" x="736" y="72" width="13" height="13" rx="2.5" fill="#161b22" style="animation-delay:0.912s"/>
<rect class="cell" x="736" y="88" width="13" height="13" rx="2.5" fill="#161b22" style="animation-delay:0.915s"/>
<rect class="cell" x="736" y="104" width="13" height="13" rx="2.5" fill="#161b22" style="animation-delay:0.918s"/>
<rect class="cell" x="736" y="120" width="13" height="13" rx="2.5" fill="#161b22" style="animation-delay:0.921s"/>
<rect class="cell" x="752" y="24" width="13" height="13" rx="2.5" fill="#161b22" style="animation-delay:0.924s"/>
<rect class="cell" x="752" y="40" width="13" height="13" rx="2.5" fill="#161b22" style="animation-delay:0.927s"/>
<rect class="cell" x="752" y="56" width="13" height="13" rx="2.5" fill="#161b22" style="animation-delay:0.930s"/>
<rect class="cell" x="752" y="72" width="13" height="13" rx="2.5" fill="#161b22" style="animation-delay:0.933s"/>
<rect class="cell" x="752" y="88" width="13" height="13" rx="2.5" fill="#161b22" style="animation-delay:0.936s"/>
<rect class="cell" x="752" y="104" width="13" height="13" rx="2.5" fill="#161b22" style="animation-delay:0.939s"/>
<rect class="cell" x="752" y="120" width="13" height="13" rx="2.5" fill="#161b22" style="animation-delay:0.942s"/>
<rect class="cell" x="768" y="24" width="13" height="13" rx="2.5" fill="#161b22" style="animation-delay:0.945s"/>
<rect class="cell" x="768" y="40" width="13" height="13" rx="2.5" fill="#161b22" style="animation-delay:0.948s"/>
<rect class="cell" x="768" y="56" width="13" height="13" rx="2.5" fill="#161b22" style="animation-delay:0.951s"/>
<rect class="cell" x="768" y="72" width="13" height="13" rx="2.5" fill="#161b22" style="animation-delay:0.954s"/>
<rect class="cell" x="768" y="88" width="13" height="13" rx="2.5" fill="#161b22" style="animation-delay:0.957s"/>
<rect class="cell" x="768" y="104" width="13" height="13" rx="2.5" fill="#161b22" style="animation-delay:0.960s"/>
<rect class="cell" x="768" y="120" width="13" height="13" rx="2.5" fill="#161b22" style="animation-delay:0.963s"/>
<rect class="cell" x="784" y="24" width="13" height="13" rx="2.5" fill="#161b22" style="animation-delay:0.966s"/>
<rect class="cell" x="784" y="40" width="13" height="13" rx="2.5" fill="#161b22" style="animation-delay:0.969s"/>
<rect class="cell" x="784" y="56" width="13" height="13" rx="2.5" fill="#161b22" style="animation-delay:0.972s"/>
<rect class="cell" x="784" y="72" width="13" height="13" rx="2.5" fill="#161b22" style="animation-delay:0.975s"/>
<rect class="cell" x="784" y="88" width="13" height="13" rx="2.5" fill="#161b22" style="animation-delay:0.978s"/>
<rect class="cell" x="784" y="104" width="13" height="13" rx="2.5" fill="#161b22" style="animation-delay:0.981s"/>
<rect class="cell" x="784" y="120" width="13" height="13" rx="2.5" fill="#26a641" style="animation-delay:0.984s"/>
<rect class="cell" x="800" y="24" width="13" height="13" rx="2.5" fill="#161b22" style="animation-delay:0.987s"/>
<rect class="cell" x="800" y="40" width="13" height="13" rx="2.5" fill="#0e4429" style="animation-delay:0.990s"/>
<rect class="cell" x="800" y="56" width="13" height="13" rx="2.5" fill="#39d353" style="animation-delay:0.993s"/>
<rect class="cell" x="800" y="72" width="13" height="13" rx="2.5" fill="#161b22" style="animation-delay:0.996s"/>
<rect class="cell" x="800" y="88" width="13" height="13" rx="2.5" fill="#161b22" style="animation-delay:0.999s"/>
<rect class="cell" x="800" y="104" width="13" height="13" rx="2.5" fill="#161b22" style="animation-delay:1.002s"/>
<rect class="cell" x="800" y="120" width="13" height="13" rx="2.5" fill="#006d32" style="animation-delay:1.005s"/>
<rect class="cell" x="816" y="24" width="13" height="13" rx="2.5" fill="#161b22" style="animation-delay:1.008s"/>
<rect class="cell" x="816" y="40" width="13" height="13" rx="2.5" fill="#161b22" style="animation-delay:1.011s"/>
<rect class="cell" x="816" y="56" width="13" height="13" rx="2.5" fill="#161b22" style="animation-delay:1.014s"/>
<rect class="cell" x="816" y="72" width="13" height="13" rx="2.5" fill="#161b22" style="animation-delay:1.017s"/>
<rect class="cell" x="816" y="88" width="13" height="13" rx="2.5" fill="#161b22" style="animation-delay:1.020s"/>
<rect class="cell" x="816" y="104" width="13" height="13" rx="2.5" fill="#161b22" style="animation-delay:1.023s"/>
<rect class="cell" x="816" y="120" width="13" height="13" rx="2.5" fill="#161b22" style="animation-delay:1.026s"/>
<rect class="cell" x="832" y="24" width="13" height="13" rx="2.5" fill="#161b22" style="animation-delay:1.029s"/>
<rect class="cell" x="832" y="40" width="13" height="13" rx="2.5" fill="#161b22" style="animation-delay:1.032s"/>
<rect class="cell" x="832" y="56" width="13" height="13" rx="2.5" fill="#161b22" style="animation-delay:1.035s"/>
<rect class="cell" x="832" y="72" width="13" height="13" rx="2.5" fill="#161b22" style="animation-delay:1.038s"/>
<rect class="cell" x="832" y="88" width="13" height="13" rx="2.5" fill="#161b22" style="animation-delay:1.041s"/>
<rect class="cell" x="832" y="104" width="13" height="13" rx="2.5" fill="#161b22" style="animation-delay:1.044s"/>
<rect class="cell" x="832" y="120" width="13" height="13" rx="2.5" fill="#161b22" style="animation-delay:1.047s"/>
<rect class="cell" x="848" y="24" width="13" height="13" rx="2.5" fill="#161b22" style="animation-delay:1.050s"/>
<rect class="cell" x="848" y="40" width="13" height="13" rx="2.5" fill="#161b22" style="animation-delay:1.053s"/>
<rect class="cell" x="848" y="56" width="13" height="13" rx="2.5" fill="#161b22" style="animation-delay:1.056s"/>
<rect class="cell" x="848" y="72" width="13" height="13" rx="2.5" fill="#161b22" style="animation-delay:1.059s"/>
<rect class="cell" x="848" y="88" width="13" height="13" rx="2.5" fill="#161b22" style="animation-delay:1.062s"/>
<rect class="cell" x="848" y="104" width="13" height="13" rx="2.5" fill="#161b22" style="animation-delay:1.065s"/>
<rect class="cell" x="848" y="120" width="13" height="13" rx="2.5" fill="#161b22" style="animation-delay:1.068s"/>
<rect class="cell" x="864" y="24" width="13" height="13" rx="2.5" fill="#161b22" style="animation-delay:1.071s"/>
<rect class="cell" x="864" y="40" width="13" height="13" rx="2.5" fill="#161b22" style="animation-delay:1.074s"/>
<rect class="cell" x="864" y="56" width="13" height="13" rx="2.5" fill="#161b22" style="animation-delay:1.077s"/>
<rect class="cell" x="864" y="72" width="13" height="13" rx="2.5" fill="#0e4429" style="animation-delay:1.080s"/>
<rect class="cell" x="864" y="88" width="13" height="13" rx="2.5" fill="#26a641" style="animation-delay:1.083s"/>
<rect class="cell" x="864" y="104" width="13" height="13" rx="2.5" fill="#161b22" style="animation-delay:1.086s"/>
<rect class="cell" x="864" y="120" width="13" height="13" rx="2.5" fill="#0e4429" style="animation-delay:1.089s"/>
<rect class="cell" x="880" y="24" width="13" height="13" rx="2.5" fill="#161b22" style="animation-delay:1.092s"/>
<rect class="cell" x="880" y="40" width="13" height="13" rx="2.5" fill="#0e4429" style="animation-delay:1.095s"/>
<rect class="cell" x="880" y="56" width="13" height="13" rx="2.5" fill="#161b22" style="animation-delay:1.098s"/>
<rect class="cell" x="880" y="72" width="13" height="13" rx="2.5" fill="#161b22" style="animation-delay:1.101s"/>
<rect class="cell" x="880" y="88" width="13" height="13" rx="2.5" fill="#161b22" style="animation-delay:1.104s"/>
<rect class="cell" x="880" y="104" width="13" height="13" rx="2.5" fill="#0e4429" style="animation-delay:1.107s"/>
<rect class="cell" x="880" y="120" width="13" height="13" rx="2.5" fill="#0e4429" style="animation-delay:1.110s"/>
<text x="48" y="158" font-size="10" fill="#8b949e">Less</text>
<rect x="84" y="148" width="13" height="13" rx="2.5" fill="#161b22"/>
<rect x="100" y="148" width="13" height="13" rx="2.5" fill="#0e4429"/>
<rect x="116" y="148" width="13" height="13" rx="2.5" fill="#006d32"/>
<rect x="132" y="148" width="13" height="13" rx="2.5" fill="#26a641"/>
<rect x="148" y="148" width="13" height="13" rx="2.5" fill="#39d353"/>
<text x="170" y="158" font-size="10" fill="#8b949e">More</text>
<text x="48" y="186" font-size="11" fill="#8b949e">18 contributions in the last year</text>
</svg>