<svg xmlns="http://www.w3.org/2000/svg" viewBox="0 0 522 319" width="522" height="319">
<rect width="522" height="319" fill="#0d1117"/>
<style>text { font-family: "Courier New", Courier, monospace; font-size: 12px; fill: #8b949e; }</style>
<g opacity="0">
  <animate attributeName="opacity" from="0" to="1" begin="0.04s" dur="0.3s" fill="freeze"/>
  <text x="156" y="20">.</text><text x="162" y="20">-</text><text x="168" y="20">-</text><text x="174" y="20">-</text><text x="180" y="20">-</text><text x="186" y="20">-</text><text x="192" y="20">-</text><text x="198" y="20">.</text>
</g>
<g opacity="0">
  <animate attributeName="opacity" from="0" to="1" begin="0.08s" dur="0.3s" fill="freeze"/>
  <text x="126" y="31">.</text><text x="132" y="31">-</text><text x="138" y="31">-</text><text x="144" y="31">-</text><text x="150" y="31">'</text><text x="204" y="31">'</text><text x="210" y="31">-</text><text x="216" y="31">-</text><text x="222" y="31">-</text><text x="228" y="31">.</text>
</g>
<g opacity="0">
  <animate attributeName="opacity" from="0" to="1" begin="0.12s" dur="0.3s" fill="freeze"/>
  <text x="108" y="42">.</text><text x="114" y="42">-</text><text x="120" y="42">'</text><text x="150" y="42">_</text><text x="156" y="42">_</text><text x="162" y="42">_</text><text x="168" y="42">_</text><text x="174" y="42">_</text><text x="180" y="42">_</text><text x="186" y="42">_</text><text x="192" y="42">_</text><text x="198" y="42">_</text><text x="204" y="42">_</text><text x="234" y="42">'</text><text x="240" y="42">-</text><text x="246" y="42">.</text>
</g>
<g opacity="0">
  <animate attributeName="opacity" from="0" to="1" begin="0.16s" dur="0.3s" fill="freeze"/>
  <text x="90" y="53">.</text><text x="96" y="53">-</text><text x="102" y="53">'</text><text x="132" y="53">.</text><text x="138" y="53">-</text><text x="144" y="53">'</text><text x="210" y="53">'</text><text x="216" y="53">-</text><text x="222" y="53">.</text><text x="252" y="53">'</text><text x="258" y="53">-</text><text x="264" y="53">.</text>
</g>
<g opacity="0">
  <animate attributeName="opacity" from="0" to="1" begin="0.20s" dur="0.3s" fill="freeze"/>
  <text x="72" y="64">.</text><text x="78" y="64">-</text><text x="84" y="64">'</text><text x="120" y="64">.</text><text x="126" y="64">'</text><text x="228" y="64">'</text><text x="234" y="64">.</text><text x="270" y="64">'</text><text x="276" y="64">-</text><text x="282" y="64">.</text>
</g>
<g opacity="0">
  <animate attributeName="opacity" from="0" to="1" begin="0.24s" dur="0.3s" fill="freeze"/>
  <text x="54" y="75">.</text><text x="60" y="75">-</text><text x="66" y="75">'</text><text x="108" y="75">.</text><text x="114" y="75">'</text><text x="240" y="75">'</text><text x="246" y="75">.</text><text x="288" y="75">'</text><text x="294" y="75">-</text><text x="300" y="75">.</text>
</g>
<g opacity="0">
  <animate attributeName="opacity" from="0" to="1" begin="0.28s" dur="0.3s" fill="freeze"/>
  <text x="48" y="86">/</text><text x="90" y="86">.</text><text x="96" y="86">'</text><text x="246" y="86">'</text><text x="252" y="86">.</text><text x="300" y="86">\</text>
</g>
<g opacity="0">
  <animate attributeName="opacity" from="0" to="1" begin="0.32s" dur="0.3s" fill="freeze"/>
  <text x="42" y="97">/</text><text x="78" y="97">.</text><text x="84" y="97">'</text><text x="258" y="97">'</text><text x="264" y="97">.</text><text x="306" y="97">\</text>
</g>
<g opacity="0">
  <animate attributeName="opacity" from="0" to="1" begin="0.36s" dur="0.3s" fill="freeze"/>
  <text x="36" y="108">|</text><text x="66" y="108">.</text><text x="72" y="108">'</text><text x="138" y="108">_</text><text x="144" y="108">_</text><text x="150" y="108">_</text><text x="156" y="108">_</text><text x="162" y="108">-</text><text x="168" y="108">-</text><text x="174" y="108">-</text><text x="180" y="108">-</text><text x="186" y="108">-</text><text x="192" y="108">-</text><text x="198" y="108">_</text><text x="204" y="108">_</text><text x="210" y="108">_</text><text x="216" y="108">_</text><text x="282" y="108">'</text><text x="288" y="108">.</text><text x="312" y="108">|</text>
</g>
<g opacity="0">
  <animate attributeName="opacity" from="0" to="1" begin="0.40s" dur="0.3s" fill="freeze"/>
  <text x="36" y="119">|</text><text x="54" y="119">.</text><text x="60" y="119">'</text><text x="120" y="119">.</text><text x="126" y="119">-</text><text x="132" y="119">'</text><text x="222" y="119">'</text><text x="228" y="119">-</text><text x="234" y="119">.</text><text x="294" y="119">'</text><text x="300" y="119">.</text><text x="312" y="119">|</text>
</g>
<g opacity="0">
  <animate attributeName="opacity" from="0" to="1" begin="0.44s" dur="0.3s" fill="freeze"/>
  <text x="36" y="130">|</text><text x="42" y="130">.</text><text x="48" y="130">'</text><text x="114" y="130">/</text><text x="240" y="130">\</text><text x="306" y="130">'</text><text x="312" y="130">.</text><text x="318" y="130">|</text>
</g>
<g opacity="0">
  <animate attributeName="opacity" from="0" to="1" begin="0.48s" dur="0.3s" fill="freeze"/>
  <text x="36" y="141">|</text><text x="42" y="141">|</text><text x="108" y="141">|</text><text x="138" y="141">_</text><text x="144" y="141">_</text><text x="150" y="141">_</text><text x="156" y="141">_</text><text x="162" y="141">_</text><text x="168" y="141">_</text><text x="174" y="141">_</text><text x="180" y="141">_</text><text x="186" y="141">_</text><text x="192" y="141">_</text><text x="198" y="141">_</text><text x="204" y="141">_</text><text x="210" y="141">_</text><text x="246" y="141">|</text><text x="312" y="141">|</text><text x="318" y="141">|</text>
</g>
<g opacity="0">
  <animate attributeName="opacity" from="0" to="1" begin="0.52s" dur="0.3s" fill="freeze"/>
  <text x="36" y="152">|</text><text x="42" y="152">|</text><text x="108" y="152">|</text><text x="132" y="152">|</text><text x="204" y="152">|</text><text x="240" y="152">|</text><text x="306" y="152">|</text><text x="312" y="152">|</text>
</g>
<g opacity="0">
  <animate attributeName="opacity" from="0" to="1" begin="0.56s" dur="0.3s" fill="freeze"/>
  <text x="36" y="163">|</text><text x="42" y="163">|</text><text x="108" y="163">|</text><text x="132" y="163">|</text><text x="150" y="163">O</text><text x="186" y="163">O</text><text x="204" y="163">|</text><text x="240" y="163">|</text><text x="306" y="163">|</text><text x="312" y="163">|</text>
</g>
<g opacity="0">
  <animate attributeName="opacity" from="0" to="1" begin="0.60s" dur="0.3s" fill="freeze"/>
  <text x="36" y="174">|</text><text x="42" y="174">|</text><text x="108" y="174">|</text><text x="132" y="174">|</text><text x="204" y="174">|</text><text x="240" y="174">|</text><text x="306" y="174">|</text><text x="312" y="174">|</text>
</g>
<g opacity="0">
  <animate attributeName="opacity" from="0" to="1" begin="0.64s" dur="0.3s" fill="freeze"/>
  <text x="36" y="185">|</text><text x="42" y="185">|</text><text x="78" y="185">_</text><text x="84" y="185">_</text><text x="90" y="185">_</text><text x="108" y="185">|</text><text x="132" y="185">|</text><text x="138" y="185">_</text><text x="144" y="185">_</text><text x="150" y="185">_</text><text x="156" y="185">_</text><text x="162" y="185">_</text><text x="168" y="185">_</text><text x="174" y="185">_</text><text x="180" y="185">_</text><text x="186" y="185">_</text><text x="192" y="185">_</text><text x="198" y="185">_</text><text x="204" y="185">|</text><text x="222" y="185">_</text><text x="228" y="185">_</text><text x="234" y="185">_</text><text x="240" y="185">|</text><text x="276" y="185">_</text><text x="282" y="185">_</text><text x="288" y="185">_</text><text x="306" y="185">|</text><text x="312" y="185">|</text>
</g>
<g opacity="0">
  <animate attributeName="opacity" from="0" to="1" begin="0.68s" dur="0.3s" fill="freeze"/>
  <text x="36" y="196">|</text><text x="42" y="196">|</text><text x="72" y="196">/</text><text x="96" y="196">\</text><text x="108" y="196">|</text><text x="222" y="196">|</text><text x="246" y="196">\</text><text x="276" y="196">/</text><text x="300" y="196">\</text><text x="312" y="196">|</text><text x="318" y="196">|</text>
</g>
<g opacity="0">
  <animate attributeName="opacity" from="0" to="1" begin="0.72s" dur="0.3s" fill="freeze"/>
  <text x="36" y="207">|</text><text x="42" y="207">|</text><text x="66" y="207">|</text><text x="84" y="207">O</text><text x="102" y="207">|</text><text x="108" y="207">|</text><text x="222" y="207">|</text><text x="228" y="207">|</text><text x="240" y="207">O</text><text x="258" y="207">|</text><text x="276" y="207">|</text><text x="294" y="207">O</text><text x="312" y="207">|</text><text x="318" y="207">|</text>
</g>
<g opacity="0">
  <animate attributeName="opacity" from="0" to="1" begin="0.76s" dur="0.3s" fill="freeze"/>
  <text x="36" y="218">|</text><text x="42" y="218">|</text><text x="72" y="218">\</text><text x="78" y="218">_</text><text x="84" y="218">_</text><text x="90" y="218">_</text><text x="96" y="218">/</text><text x="114" y="218">\</text><text x="216" y="218">/</text><text x="234" y="218">\</text><text x="240" y="218">_</text><text x="246" y="218">_</text><text x="252" y="218">_</text><text x="258" y="218">/</text><text x="282" y="218">\</text><text x="288" y="218">_</text><text x="294" y="218">_</text><text x="300" y="218">_</text><text x="306" y="218">/</text><text x="324" y="218">|</text><text x="330" y="218">|</text>
</g>
<g opacity="0">
  <animate attributeName="opacity" from="0" to="1" begin="0.80s" dur="0.3s" fill="freeze"/>
  <text x="36" y="229">'</text><text x="42" y="229">'</text><text x="48" y="229">-</text><text x="54" y="229">-</text><text x="60" y="229">-</text><text x="66" y="229">-</text><text x="72" y="229">-</text><text x="78" y="229">-</text><text x="84" y="229">-</text><text x="90" y="229">-</text><text x="96" y="229">-</text><text x="102" y="229">-</text><text x="108" y="229">'</text><text x="114" y="229">\</text><text x="120" y="229">_</text><text x="126" y="229">_</text><text x="132" y="229">_</text><text x="138" y="229">_</text><text x="144" y="229">_</text><text x="150" y="229">_</text><text x="156" y="229">_</text><text x="162" y="229">_</text><text x="168" y="229">_</text><text x="174" y="229">_</text><text x="180" y="229">_</text><text x="186" y="229">_</text><text x="192" y="229">_</text><text x="198" y="229">_</text><text x="204" y="229">/</text><text x="210" y="229">'</text><text x="216" y="229">-</text><text x="222" y="229">-</text><text x="228" y="229">-</text><text x="234" y="229">-</text><text x="240" y="229">-</text><text x="246" y="229">-</text><text x="252" y="229">-</text><text x="258" y="229">-</text><text x="264" y="229">-</text><text x="270" y="229">-</text><text x="276" y="229">'</text><text x="282" y="229">'</text>
</g>
<g opacity="0">
  <animate attributeName="opacity" from="0" to="1" begin="0.88s" dur="0.3s" fill="freeze"/>
  <text x="24" y="251">_</text><text x="30" y="251">_</text><text x="36" y="251">_</text><text x="42" y="251">_</text><text x="48" y="251">_</text><text x="54" y="251">_</text><text x="60" y="251">_</text><text x="66" y="251">_</text><text x="72" y="251">_</text><text x="78" y="251">_</text><text x="84" y="251">_</text><text x="162" y="251">_</text><text x="168" y="251">_</text><text x="174" y="251">_</text><text x="180" y="251">_</text><text x="186" y="251">_</text><text x="192" y="251">_</text><text x="198" y="251">_</text><text x="204" y="251">_</text><text x="210" y="251">_</text><text x="216" y="251">_</text><text x="222" y="251">_</text>
</g>
<g opacity="0">
  <animate attributeName="opacity" from="0" to="1" begin="0.92s" dur="0.3s" fill="freeze"/>
  <text x="18" y="262">/</text><text x="90" y="262">\</text><text x="156" y="262">/</text><text x="228" y="262">\</text>
</g>
<g opacity="0">
  <animate attributeName="opacity" from="0" to="1" begin="0.96s" dur="0.3s" fill="freeze"/>
  <text x="12" y="273">|</text><text x="30" y="273">_</text><text x="36" y="273">_</text><text x="42" y="273">_</text><text x="66" y="273">_</text><text x="72" y="273">_</text><text x="78" y="273">_</text><text x="96" y="273">|</text><text x="150" y="273">|</text><text x="168" y="273">_</text><text x="174" y="273">_</text><text x="180" y="273">_</text><text x="204" y="273">_</text><text x="210" y="273">_</text><text x="216" y="273">_</text><text x="234" y="273">|</text>
</g>
<g opacity="0">
  <animate attributeName="opacity" from="0" to="1" begin="1.00s" dur="0.3s" fill="freeze"/>
  <text x="12" y="284">|</text><text x="24" y="284">|</text><text x="48" y="284">|</text><text x="60" y="284">|</text><text x="84" y="284">|</text><text x="96" y="284">|</text><text x="150" y="284">|</text><text x="162" y="284">|</text><text x="186" y="284">|</text><text x="198" y="284">|</text><text x="222" y="284">|</text><text x="234" y="284">|</text>
</g>
<g opacity="0">
  <animate attributeName="opacity" from="0" to="1" begin="1.04s" dur="0.3s" fill="freeze"/>
  <text x="12" y="295">|</text><text x="24" y="295">|</text><text x="30" y="295">_</text><text x="36" y="295">_</text><text x="42" y="295">_</text><text x="48" y="295">|</text><text x="60" y="295">|</text><text x="66" y="295">_</text><text x="72" y="295">_</text><text x="78" y="295">_</text><text x="84" y="295">|</text><text x="96" y="295">|</text><text x="150" y="295">|</text><text x="162" y="295">|</text><text x="168" y="295">_</text><text x="174" y="295">_</text><text x="180" y="295">_</text><text x="186" y="295">|</text><text x="198" y="295">|</text><text x="204" y="295">_</text><text x="210" y="295">_</text><text x="216" y="295">_</text><text x="222" y="295">|</text><text x="234" y="295">|</text>
</g>
<g opacity="0">
  <animate attributeName="opacity" from="0" to="1" begin="1.08s" dur="0.3s" fill="freeze"/>
  <text x="18" y="306">\</text><text x="24" y="306">_</text><text x="30" y="306">_</text><text x="36" y="306">_</text><text x="42" y="306">_</text><text x="48" y="306">_</text><text x="54" y="306">_</text><text x="60" y="306">_</text><text x="66" y="306">_</text><text x="72" y="306">_</text><text x="78" y="306">_</text><text x="84" y="306">_</text><text x="90" y="306">/</text><text x="156" y="306">\</text><text x="162" y="306">_</text><text x="168" y="306">_</text><text x="174" y="306">_</text><text x="180" y="306">_</text><text x="186" y="306">_</text><text x="192" y="306">_</text><text x="198" y="306">_</text><text x="204" y="306">_</text><text x="210" y="306">_</text><text x="216" y="306">_</text><text x="222" y="306">_</text><text x="228" y="306">/</text>
</g>
</svg>